<?xml version="1.0" encoding="utf-8"?>
<!-- Generator: Adobe Illustrator 18.1.1, SVG Export Plug-In . SVG Version: 6.00 Build 0)  -->
<svg version="1.1" id="Layer_1" xmlns="http://www.w3.org/2000/svg" xmlns:xlink="http://www.w3.org/1999/xlink" x="0px" y="0px"
	 viewBox="0 0 1335.6 1335.6" enable-background="new 0 0 1335.6 1335.6" xml:space="preserve">
<circle fill="#29ABE2" cx="667.8" cy="667.8" r="667.8"/>
<g>
	<path fill="#39B4E8" d="M195.6,195.6C55.1,336.1-9.7,523.6,1.2,707.5c77.5-40.8,178.1-67.5,348.4-78.8
		c318-21.1,507.1-66.1,612.1-243.1c43.2-72.8,90-158.4,130-233.8C829.4-64.3,440.8-49.7,195.6,195.6z"/>
</g>
<g>
	<path fill="#29ABE2" d="M195.6,195.6C108.2,283,50,388.7,21.2,500.3c42.9-2,107.3-10,211.3-33.7c276-63,387-159,501.1-255
		C812.7,145,860,88.5,890.6,38.1C655.6-44.8,383.5,7.6,195.6,195.6z"/>
</g>
<g>
	<path fill="#39B4E8" d="M1332.9,607.9c-139.2,239.9-626.4,377.6-989.3,419.5c-96.2,11.1-164.5,22.6-214.4,35.3
		c19.8,27,42,52.8,66.4,77.2c260.8,260.8,683.6,260.8,944.4,0C1285.6,994.3,1349.9,798.2,1332.9,607.9z"/>
</g>
<g>
	<path fill="#29ABE2" d="M718.6,1252.7c-80.9,25.9-163,43.2-242.8,54.8c227.6,68.1,484.4,12.2,664.2-167.5
		c77-77,131.2-168,162.7-264.9C1200.8,1010.2,985,1167.2,718.6,1252.7z"/>
</g>
<g>
	
		<linearGradient id="SVGID_1_" gradientUnits="userSpaceOnUse" x1="435.7834" y1="637.8738" x2="900.0073" y2="637.8738" gradientTransform="matrix(0.7071 0.7071 -0.7071 0.7071 667.7813 -276.6041)">
		<stop  offset="0.5" style="stop-color:#FFFFFF"/>
		<stop  offset="0.5" style="stop-color:#000000"/>
	</linearGradient>
	<path fill="url(#SVGID_1_)" stroke="#000000" stroke-width="40.694" stroke-miterlimit="10" d="M951.6,384.1
		c-90.6-90.6-237.6-90.6-328.3,0c-164.1,164.1-197,525.2-197,525.2s361.1-32.8,525.2-197C1042.3,621.7,1042.3,474.8,951.6,384.1z"/>
	<circle fill="#FFFFFF" stroke="#000000" stroke-width="40.694" stroke-miterlimit="10" cx="789" cy="546.7" r="89.3"/>
	<path stroke="#000000" stroke-width="40.694" stroke-miterlimit="10" d="M733.2,839.8c-81,29.5-162.3,47.2-220.9,57.4
		c5.5,56.2-16.6,120-64.1,171c14-1.4,182.9-19.7,261.6-98.4C744.9,934.6,752.7,882.5,733.2,839.8z"/>
	<path fill="#FFFFFF" stroke="#000000" stroke-width="40.694" stroke-miterlimit="10" d="M496,602.5c-42.8-19.4-94.8-11.7-130,23.5
		c-78.6,78.6-97,247.6-98.4,261.6c51-47.6,114.8-69.7,171-64.1C448.7,764.8,466.5,683.5,496,602.5z"/>
	
		<linearGradient id="SVGID_2_" gradientUnits="userSpaceOnUse" x1="618.4135" y1="186.6413" x2="717.3773" y2="186.6413" gradientTransform="matrix(0.7071 0.7071 -0.7071 0.7071 667.7813 -276.6041)">
		<stop  offset="0.5" style="stop-color:#FFFFFF"/>
		<stop  offset="0.5" style="stop-color:#000000"/>
	</linearGradient>
	<path fill="url(#SVGID_2_)" stroke="#000000" stroke-width="40.694" stroke-miterlimit="10" d="M981.9,316.2l-57.6,44.5
		c9.6,7,18.7,14.8,27.4,23.4c8.6,8.6,16.4,17.8,23.4,27.4l44.6-57.7c15.9,3.5,34-1.8,46.4-14.1c19.3-19.3,19.8-51.1,0.4-70.4
		c-19.3-19.3-50.4-19.5-69.8-0.2C984.4,281.4,978.4,300.3,981.9,316.2z"/>
	<line fill="#FFFFFF" stroke="#000000" stroke-width="37.7873" stroke-miterlimit="10" x1="452" y1="756.3" x2="579.5" y2="883.7"/>
	
		<line fill="#FFFFFF" stroke="#000000" stroke-width="37.7873" stroke-miterlimit="10" x1="470.5" y1="680.2" x2="655.5" y2="865.2"/>
	
		<line fill="#FFFFFF" stroke="#000000" stroke-width="40.694" stroke-linecap="round" stroke-miterlimit="10" x1="254.8" y1="1080.9" x2="347.3" y2="988.5"/>
	
		<line fill="#FFFFFF" stroke="#000000" stroke-width="40.694" stroke-linecap="round" stroke-miterlimit="10" x1="342.5" y1="1071.4" x2="414.4" y2="999.4"/>
	
		<line fill="#FFFFFF" stroke="#000000" stroke-width="40.694" stroke-linecap="round" stroke-miterlimit="10" x1="264.3" y1="993.3" x2="336.3" y2="921.3"/>
</g>
<g>
	<path fill="#FFFFFF" d="M262.4,610.3c-0.2,1.5-1.5,1.9-2.2,1.8l-70.7,11.5l68.6,7.6c1.5,0.2,1.9,1,1.8,2.2l-2.5,22.4
		c-0.2,1.5-1.5,1.9-2.2,1.8l-170-18.8c-1.2-0.1-1.9-1-1.8-2.2l4.9-44.7c2-18.4,11.7-24.1,26.9-22.4l50.9,5.6c13.9,1.5,22.1,7,22,22
		l75.2-13.8c1.5-0.1,1.9,1,1.8,2.2L262.4,610.3z M111.3,615l49.2,5.4l2-17.9c0.1-1-0.1-1.3-1.1-1.4l-46.7-5.2
		c-1-0.1-1.3,0.1-1.4,1.1L111.3,615z"/>
	<path fill="#FFFFFF" d="M245,571.5l-122.8-39.7c-14.7-4.8-21.2-14-15.5-31.6l7.8-24.3c5.7-17.6,16.3-21.3,30.8-16.6L267.9,499
		c14.7,4.8,21.6,12.8,15.6,31.3l-7.8,24C269.6,573.4,259.3,576.1,245,571.5z M137.8,486.2l-6.3,19.5c-0.3,1-0.1,1.3,0.8,1.6
		l118.5,38.3c1,0.3,1.3,0.1,1.6-0.8l6.3-19.5c0.3-1,0.1-1.3-0.8-1.6l-118.5-38.3C138.4,485,138.1,485.2,137.8,486.2z"/>
	<path fill="#FFFFFF" d="M185.2,383.2l-10,17.9c-0.5,0.9-0.4,1.2,0.5,1.7l108.5,61c0.9,0.5,1.2,0.4,1.7-0.5l10-17.9
		c0.5-0.9,0.4-1.2-0.5-1.7l-20.3-11.4c-1.1-0.6-1-1.7-0.5-2.6l11-19.6c0.6-1.1,1.4-1.5,2.5-0.9l22,12.4c13.5,7.6,18.7,16.8,9.1,33.8
		l-12.4,22c-9.8,17.4-20.5,18-33.5,10.7l-112.4-63.2c-13.5-7.6-18-17.9-9-34l12.5-22.2c9.1-16.1,20.2-17.6,33.5-10.1l20.3,11.4
		c1.1,0.6,1.2,1.5,0.5,2.6l-11,19.6c-0.5,0.9-1.4,1.5-2.5,0.9l-18.3-10.3C186.1,382.2,185.7,382.3,185.2,383.2z"/>
	<path fill="#FFFFFF" d="M383.3,368.2c0.9,0.8,1,1.9,0.4,2.6l-14.9,17.2c-0.7,0.8-1.9,1-2.8,0.2l-54.2-47c-0.8-0.7-1.1-0.6-1.8,0.1
		l-14.2,16.4l55.2,47.8c1.1,1,1,1.9,0.2,2.8l-14.7,17c-1,1.1-2.3,0.7-2.8,0.2l-129.3-112c-0.9-0.8-1-1.9-0.2-2.8l14.7-17
		c0.8-0.9,1.9-1,2.8-0.2l55.9,48.4L237.8,275c-0.2-0.9-0.9-2.1,0.1-3.2l16-18.5c0.8-0.9,2.1-0.5,2.7,0.7l39,66.5
		c13-11.6,22.6-8.5,35.6,2.8L383.3,368.2z"/>
	<path fill="#FFFFFF" d="M395.4,361.7c-1.2,0.9-2.3,0.3-2.8-0.3L285.5,228.1c-0.8-1-0.7-2,0.3-2.8l36.3-29.1c0.8-0.6,2-0.7,2.8,0.3
		l13.3,16.6c0.8,1,0.3,2-0.5,2.6l-17.2,13.8l30.4,37.8l17.2-13.8c0.8-0.6,2-0.7,2.8,0.3l13.3,16.6c0.9,1.2,0.5,2.2-0.3,2.8
		l-17.2,13.8l31.9,39.8l17.2-13.8c0.8-0.6,2-0.7,2.7,0.1l13.5,16.8c0.9,1.2,0.5,2.2-0.3,2.8L395.4,361.7z"/>
	<path fill="#FFFFFF" d="M403.7,174.7l72.8,128.8c0.7,1.3,0.3,2.1-0.5,2.6l-19.8,11.2c-1.1,0.6-2.4-0.1-2.7-0.8l-72.8-128.8
		l-16.5,9.3c-1.3,0.7-2.2,0.1-2.6-0.5L351,178.1c-0.6-1.1-0.3-2.1,0.8-2.7l56.4-31.9c0.9-0.5,2.1-0.3,2.7,0.8l10.5,18.5
		c0.6,1.1,0,2-0.9,2.5L403.7,174.7z"/>
	<path fill="#FFFFFF" d="M490.4,136.4l-19.3,6.9c-0.9,0.3-1.1,0.7-0.8,1.6l41.8,117.3c0.3,0.9,0.7,1.1,1.6,0.8L533,256
		c0.9-0.3,1.1-0.7,0.8-1.6l-7.8-21.9c-0.4-1.2,0.4-2,1.3-2.3l21.2-7.6c1.2-0.4,2.1-0.2,2.5,1l8.5,23.8c5.2,14.6,3,24.9-15.3,31.5
		l-23.8,8.5c-18.8,6.7-27.3,0.2-32.3-14l-43.3-121.5c-5.2-14.6-1.9-25.3,15.6-31.6l24-8.6c17.4-6.2,26.8,0,31.9,14.4L524,148
		c0.4,1.2-0.1,1.9-1.3,2.3l-21.2,7.6c-0.9,0.3-2.1,0.2-2.5-1l-7-19.8C491.6,136.2,491.3,136.1,490.4,136.4z"/>
	<path fill="#FFFFFF" d="M570.3,245.4l-18-127.7c-2.2-15.3,3.3-25.2,21.6-27.8l25.2-3.6c18.3-2.6,26.3,5.4,28.4,20.5l18,127.5
		c2.2,15.3-2,25-21.3,27.8l-25,3.5C579.3,268.3,572.4,260.2,570.3,245.4z M600.1,111.6l-20.3,2.9c-1,0.1-1.2,0.4-1.1,1.4l17.4,123.3
		c0.1,1,0.4,1.2,1.4,1.1l20.3-2.9c1-0.1,1.2-0.4,1.1-1.4l-17.4-123.3C601.4,111.7,601.1,111.5,600.1,111.6z"/>
	<path fill="#FFFFFF" d="M708.6,260.4c-1.5-0.1-1.9-1.4-1.9-2.1l-17.9-84.6l-5.6,83.1c-0.1,1.5-0.9,1.9-2.1,1.9l-22-1.5
		c-1.5-0.1-1.9-1.4-1.9-2.1l11.5-170.6c0.1-1.2,0.9-1.9,2.1-1.9l22.5,1.5c1.2,0.1,1.9,0.9,1.9,2.1l17.9,84.6l5.6-83.1
		c0.1-1.2,0.9-1.9,2.1-1.9l22,1.5c1,0.1,1.9,0.9,1.9,2.1L733.2,260c-0.1,1.5-1.1,1.9-2.1,1.9L708.6,260.4z"/>
	<path fill="#FFFFFF" d="M787.5,197.3L770,269.5c-0.4,1.5-1.2,1.8-2.4,1.5l-21.9-5.3c-1.5-0.4-1.6-1.7-1.5-2.4l40.5-166.1
		c0.3-1.2,1.2-1.8,2.4-1.5l45.2,11c1,0.2,1.8,1.2,1.5,2.4l-5,20.6c-0.3,1.2-1.4,1.5-2.4,1.2l-21.4-5.2l-11.5,47.1l20.6,5
		c1,0.2,1.8,1.2,1.5,2.4l-5,20.6c-0.4,1.5-1.4,1.7-2.4,1.5L787.5,197.3z"/>
</g>
<g>
	<path fill="#FFFFFF" d="M601.3,1108.3c1.2,0.2,1.4,1.3,1.3,1.9l-1.3,138.7c-0.2,1-0.9,1.5-1.9,1.3l-18.5-3.2
		c-0.8-0.1-1.5-0.9-1.3-1.9l1.2-33.7l-16.4-2.9l-10.7,32c-0.2,1-0.9,1.5-1.9,1.3l-18.5-3.2c-1-0.2-1.5-0.9-1.3-1.9l47-130.6
		c0.1-0.6,0.7-1.5,1.9-1.3L601.3,1108.3z M570.9,1189.3l10.8,1.9l1.5-38.9L570.9,1189.3z"/>
	<path fill="#FFFFFF" d="M688.1,1182.7l-11.4,38.8c-0.4,1.4-1,3-2.6,3.2l-14.8,0c-1.6-0.2-2-1.8-2.6-3.2l-11.4-38.2l-0.1,68.2
		c0,1.2-0.6,1.6-1.6,1.6l-17.6,0c-1.2,0-1.6-1-1.6-1.6l0.1-136.8c0-1,0.6-1.6,1.6-1.6l17,0c2.2,0,2.4,1.6,2.8,2.8l20.7,71.2
		l20.9-71.2c0.4-1.2,0.6-2.8,3-2.8l16.8,0c1,0,1.6,0.6,1.6,1.6l-0.1,136.8c0,0.6-0.4,1.6-1.6,1.6l-17.6,0c-0.8,0-1.6-0.4-1.6-1.6
		L688.1,1182.7z"/>
	<path fill="#FFFFFF" d="M714.5,1130.3c-2.1-12.2,2.1-20.2,16.7-22.7l20.1-3.4c14.6-2.4,21.1,3.8,23.1,15.8l3.1,18.3
		c0.2,1-0.4,1.5-1.3,1.6l-17.8,3c-0.8,0.1-1.6-0.1-1.8-1.1l-2.8-16.6c-0.1-0.8-0.4-1-1.2-0.8l-16.2,2.7c-0.8,0.1-1,0.4-0.8,1.2
		l6.4,38.1c0.1,0.8,0.4,1,1.2,0.8l18.1-3c15.6-2.6,21.1,3.8,23.1,15.6l7,41.8c2.1,12.2-1.1,20.1-16.5,22.6l-19.9,3.3
		c-15.8,2.6-21.5-3.7-23.5-15.5l-3.4-20.3c-0.2-1,0.4-1.5,1.3-1.6l17.8-3c0.8-0.1,1.6,0.1,1.8,1.1l3.1,18.3c0.1,0.8,0.4,1,1.2,0.8
		l16.2-2.7c0.8-0.1,1-0.4,0.8-1.2l-6.4-38.3c-0.1-0.8-0.4-1-1.2-0.8l-18.1,3c-14.2,2.4-20.4,0.6-23.1-15.6L714.5,1130.3z"/>
	<path fill="#FFFFFF" d="M813.9,1109.7l34.5,113.3c0.3,1.1-0.1,1.7-0.9,1.9l-17.4,5.3c-1,0.3-1.8-0.5-2-1.1l-34.5-113.3l-14.5,4.4
		c-1.1,0.3-1.8-0.3-1.9-0.9l-5-16.3c-0.3-1,0.1-1.7,1.1-2l49.5-15.1c0.8-0.2,1.7,0.1,2,1.1l5,16.3c0.3,1-0.4,1.6-1.1,1.8
		L813.9,1109.7z"/>
	<path fill="#FFFFFF" d="M883.1,1212.3c-1.1,0.5-1.9-0.3-2.1-0.8l-53.8-125.8c-0.4-0.9-0.1-1.7,0.8-2.1l34.2-14.6
		c0.7-0.3,1.7-0.1,2.1,0.8l6.7,15.6c0.4,0.9-0.2,1.6-0.9,1.9l-16.2,6.9l15.3,35.7l16.2-6.9c0.7-0.3,1.7-0.1,2.1,0.8l6.7,15.6
		c0.5,1.1-0.1,1.8-0.8,2.1l-16.2,6.9l16,37.5l16.2-6.9c0.7-0.3,1.7-0.1,2,0.7l6.8,15.8c0.5,1.1-0.1,1.8-0.8,2.1L883.1,1212.3z"/>
	<path fill="#FFFFFF" d="M971,1168.6c-1,0.6-1.9-0.1-2.2-0.6l-41-40l27.7,47.7c0.6,1,0.3,1.7-0.6,2.2l-15.6,9
		c-1,0.6-1.9-0.1-2.2-0.6l-68.7-118.3c-0.5-0.9-0.3-1.7,0.6-2.2l31.1-18.1c12.8-7.4,21.1-3.9,27.2,6.6l20.6,35.5
		c5.6,9.7,6,17.5-3.7,24.6l44.7,41.8c0.8,0.9,0.3,1.7-0.6,2.2L971,1168.6z M896.1,1073.6l19.9,34.2l12.5-7.2
		c0.7-0.4,0.8-0.7,0.4-1.4l-18.9-32.5c-0.4-0.7-0.7-0.8-1.4-0.4L896.1,1073.6z"/>
	<path fill="#FFFFFF" d="M1008,1143.1L922.9,1036c-0.6-0.8-0.5-1.6,0.3-2.2l30.5-24.3c11.6-9.2,20.3-6.9,27.9,2.6l62.9,79
		c7.7,9.7,8.8,18.1-3.5,27.8l-30.7,24.4C1009.3,1144.1,1008.4,1143.6,1008,1143.1z M951,1037.4l62,78l13.6-10.8
		c0.6-0.5,0.7-0.8,0.2-1.4l-60.8-76.4c-0.5-0.6-0.8-0.7-1.4-0.2L951,1037.4z"/>
	<path fill="#FFFFFF" d="M997.2,967.6c0.8-0.9,1.8-0.5,2.3-0.1l114.6,78c0.7,0.7,0.7,1.5,0.1,2.3l-13,13.6c-0.6,0.6-1.5,0.7-2.3,0.1
		l-27.4-19.7l-11.5,12l20.7,26.7c0.7,0.7,0.7,1.5,0.1,2.3l-13,13.6c-0.7,0.7-1.5,0.7-2.3,0.1L983,984.8c-0.4-0.4-0.9-1.4-0.1-2.3
		L997.2,967.6z M1047.7,1037.8l7.6-8l-31.5-22.9L1047.7,1037.8z"/>
	<path fill="#FFFFFF" d="M1104.6,940.6l25.9,31c0.9,1.1,1.9,2.5,1.2,3.9l-8.2,12.3c-1.1,1.2-2.6,0.7-4.1,0.4l-38.1-11.7l56.7,37.9
		c1,0.7,1,1.4,0.4,2.2l-9.8,14.6c-0.7,1-1.7,0.8-2.2,0.4l-113.8-75.9c-0.8-0.6-1-1.4-0.4-2.2l9.4-14.1c1.2-1.8,2.7-1.1,3.9-0.8
		l70.8,22.2l-47.7-56.8c-0.8-1-2-2.1-0.7-4l9.3-14c0.6-0.8,1.4-1,2.2-0.4l113.8,75.9c0.5,0.3,1.1,1.2,0.4,2.2l-9.8,14.6
		c-0.4,0.7-1.2,1.1-2.2,0.4L1104.6,940.6z"/>
	<path fill="#FFFFFF" d="M1203.6,901.7l-43.4-16.5c-4.9-1.8-8.1-5-10.9-10.8l-17.9-36.1c-2.6-5.5-4.1-7.1-10.5-9.6l-14.2-5.4
		c-0.7-0.3-1-0.2-1.3,0.6l-5.8,15.3c-0.3,0.7-0.2,1,0.6,1.3l17.4,6.6c0.9,0.4,1,1.2,0.7,2l-6.4,16.8c-0.4,0.9-0.9,1.4-1.9,1
		l-19.1-7.3c-11.4-4.3-16.2-11.9-10.9-25.8l7.3-19.3c5.3-14,13.8-16.1,25.4-11.7l20.2,7.7c9,3.4,12.9,8.3,16.4,15.4l18.3,36.3
		c1.2,2.6,2.9,4.1,6.1,5.3l18.9,7.2c0.7,0.3,1,0.2,1.3-0.6l12.9-33.8c0.4-1.1,1.5-1.1,2.1-0.9l16.1,6.1c0.7,0.3,1.1,1.1,0.7,2
		l-20.2,53.1C1205.1,901.7,1204.5,902.1,1203.6,901.7z"/>
	<path fill="#FFFFFF" d="M1103.7,754.8c3.2-14.4,11.4-18.1,23.3-15.5l100.5,22.4c12.1,2.7,18.2,8.6,14.8,23.8l-4.4,19.7
		c-3.5,15.6-11.5,18.5-23.2,15.9L1114,798.7c-12.1-2.7-18-9.5-14.7-24l2.3-10.1L1103.7,754.8z M1120.2,778.3l97.2,21.7
		c0.8,0.2,1,0,1.2-0.8l3.6-16c0.2-0.8,0-1-0.8-1.2l-97.2-21.7c-0.8-0.2-1,0-1.2,0.8l-3.6,16C1119.2,777.9,1119.4,778.2,1120.2,778.3
		z"/>
	<path fill="#FFFFFF" d="M1129,735.2c-0.1,1.2-1.4,1.7-2.2,0.4l-14.6-19.8c-0.9-1.3-1.4-2.5-1.2-4.5l1.4-14.7c0.1-1,0.7-1.5,1.7-1.4
		l136.2,12.8c1.2,0.1,1.5,0.7,1.4,1.7l-1.7,17.9c-0.1,1.2-1.1,1.5-1.7,1.4l-117.7-11L1129,735.2z"/>
	<path fill="#FFFFFF" d="M1172.8,660.6l-0.5-17.6c-0.4-14.8,6.7-20.4,18.9-20.7l42.2-1.1c12.4-0.3,19.7,3.9,20.1,19.5l0.6,20.6
		c0.4,14.8-6.7,20.4-18.9,20.7l-20.4,0.5c-1,0-1.4-0.6-1.4-1.6l-0.5-18c0-0.8,0.4-1.6,1.4-1.6l18.6-0.5c0.8,0,1-0.2,1-1l-0.4-16.4
		c0-0.8-0.2-1-1-1l-38.8,1c-0.8,0-1,0.2-1,1l1,36.2c0,1-0.4,1.6-1.4,1.6l-77.2,2.1c-1,0-1.4-0.6-1.4-1.6l-1.2-43.6
		c0-1,0.6-1.6,1.4-1.6l17.2-0.5c0.6,0,1.6,0.4,1.6,1.6l0.6,23c0,0.8,0.2,1,1,1l37.6-1C1172.7,661.6,1172.9,661.4,1172.8,660.6z"/>
</g>
</svg>
