<svg xmlns="http://www.w3.org/2000/svg" xmlns:xlink="http://www.w3.org/1999/xlink" version="1.1" x="0px" y="0px" viewBox="0 0 388.1 388.1" enable-background="new 0 0 388.1 388.1" xml:space="preserve"><style>.style0{fill:	#29ABE2;}.style1{fill:	#0E2B38;}.style2{fill:	#FFFFFF;}</style><path d="M0 0v388.1h388.1V0H0z M330.1 330.1c-75.1 75.1-197 75.1-272.1 0s-75.1-197 0-272.1s197-75.1 272.1 0 S405.3 255 330.1 330.1z" class="style0"/><g><g><path d="M135.3 231.4c0 0.2-0.1 0.4-0.1 0.6" class="style1"/><path d="M220.4 247.1c25.5-9.8 45.4-21.9 59.6-36.1c24.6-24.6 27.8-62.5 9.8-90.6l8.3-10.7 c5.4 0.1 10.9-2.1 14.9-6.1c7.9-7.9 8-20.7 0.1-28.6c-7.8-7.8-20.6-7.9-28.4-0.1c-4 4-6.3 9.6-6.3 15.1l-10.7 8.3 c-28.1-18-66.1-14.7-90.6 9.8c-15.8 15.8-27.5 37.5-36.1 59.6c-13.4-3.6-28.1 0.1-38.1 10.1c-23.9 23.9-29.5 73.4-30 78.9 l-1.5 15.5l11.4-10.6c11.2-10.4 25.1-16.5 38.3-17.1c-1.6 10.6-2.3 17.5-2.4 18.5l-0.6 7l7-0.6c0.6-0.1 7.6-0.7 18.5-2.4 c-0.6 13.3-6.7 27.2-17.1 38.4l-10.6 11.4l15.5-1.5c5.6-0.6 55-6.1 78.9-30C220.3 275.2 224 260.5 220.4 247.1z M304.7 83.2 l-24.8 24.8c-0.8-0.8-1.6-1.6-2.5-2.4l13.7-10.6l-0.8-3.6c-0.6-2.6 0.6-6.1 2.7-8.2C296.2 80.1 301.4 80.1 304.7 83.2z M86.7 243.9c3.1-16.5 10.1-43.3 24.5-57.7c6.8-6.8 16.7-9.5 25.8-7.3c-6.8 19.9-11.2 39.4-13.9 54 C110.9 232.8 98.1 236.7 86.7 243.9z M131.2 256.7c0.7-5.5 1.9-13.7 3.8-23.6c0.1-0.4 0.1-0.8 0.2-1.2l0.1-0.6l10.6 10.6 L131.2 256.7z M153.7 234.2l-15.6-15.6c0.8-3.3 1.6-6.7 2.5-10.2l19.5 19.5L153.7 234.2z M167.8 220.1l-24-24 c0.6-1.9 1.1-3.8 1.7-5.7c0 0 0-0.1 0-0.1c0.4-1.3 0.8-2.6 1.2-3.9c0.1-0.2 0.1-0.4 0.2-0.6c0.4-1.2 0.8-2.4 1.2-3.6 c0.3-0.7 0.5-1.5 0.8-2.2c0.2-0.6 0.5-1.3 0.7-1.9c9.6-26.7 21.8-47.8 35.7-61.7c21.5-21.5 55.3-23.6 79.2-6.1 c0.1 0.1 0.2 0.2 0.3 0.2c0.6 0.5 1.2 0.9 1.9 1.4c0.3 0.2 0.5 0.4 0.8 0.7c0.5 0.4 0.9 0.8 1.3 1.1c0.3 0.2 0.6 0.5 0.8 0.7 c0.5 0.5 1.1 1 1.6 1.5c0.1 0.1 0.2 0.2 0.3 0.3l-20.4 20.4c-12.3-12.2-32.3-12.2-44.6 0.1c-12.3 12.3-12.3 32.2-0.1 44.6 L167.8 220.1z M214.9 173.2c0 0-0.1-0.1-0.1-0.1c-7.6-7.8-7.6-20.3 0.1-28c7.7-7.7 20.2-7.7 28-0.1c0 0 0.1 0.1 0.1 0.1 c7.7 7.7 7.7 20.4 0 28.1C235.3 181 222.7 181 214.9 173.2z" class="style1"/><path d="M135.3 231.4L135.3 231.4c0 0.2-0.1 0.4-0.1 0.6" class="style1"/><path d="M70.9 309c-2.3 2.3-2.3 6 0 8.3c2.3 2.3 6 2.3 8.3 0l26.7-26.7c2.3-2.3 2.3-6 0-8.3c-2.3-2.3-6-2.3-8.3 0 L70.9 309z" class="style1"/><path d="M96.2 306.2c-2.3 2.3-2.3 6 0 8.3c2.3 2.3 6 2.3 8.3 0l20.7-20.7c2.3-2.3 2.3-6 0-8.3 c-2.3-2.3-6-2.3-8.3 0L96.2 306.2z" class="style1"/><path d="M73.7 283.7c-2.3 2.3-2.3 6 0 8.3c2.3 2.3 6 2.3 8.3 0l20.7-20.7c2.3-2.3 2.3-6 0-8.3 c-2.3-2.3-6-2.3-8.3 0L73.7 283.7z" class="style1"/></g><g><path d="M206.6 136.8c12.3-12.3 32.2-12.3 44.6-0.1l20.4-20.4c-0.1-0.1-0.2-0.2-0.3-0.3c-0.5-0.5-1-1-1.6-1.5 c-0.3-0.3-0.6-0.5-0.8-0.7c-0.4-0.4-0.9-0.8-1.3-1.1c-0.3-0.2-0.5-0.4-0.8-0.7c-0.6-0.5-1.2-1-1.9-1.4c-0.1-0.1-0.2-0.2-0.3-0.2 c-23.9-17.5-57.6-15.4-79.2 6.1c-13.9 13.9-26 34.9-35.7 61.7c-0.2 0.6-0.5 1.3-0.7 1.9c-0.3 0.7-0.5 1.4-0.8 2.2 c-0.4 1.2-0.8 2.4-1.2 3.6c-0.1 0.2-0.1 0.4-0.2 0.6c-0.4 1.3-0.8 2.6-1.2 3.9c0 0 0 0.1 0 0.1c-0.6 1.9-1.2 3.8-1.7 5.7l24 24 l38.7-38.7C194.3 169.1 194.4 149.1 206.6 136.8z" class="style2"/><path d="M290.3 91.5l0.8 3.6l-13.7 10.6c0.9 0.8 1.7 1.6 2.5 2.4l24.8-24.8c-3.3-3.2-8.5-3.2-11.7 0 C290.9 85.4 289.7 88.9 290.3 91.5z" class="style2"/><path d="M243 145.1c0 0-0.1-0.1-0.1-0.1c-7.8-7.6-20.3-7.6-28 0.1c-7.7 7.7-7.7 20.2-0.1 28c0 0 0.1 0.1 0.1 0.1 c7.7 7.7 20.4 7.7 28.1 0C250.8 165.5 250.8 152.9 243 145.1z" class="style2"/><path d="M135.2 232c-0.1 0.4-0.2 0.8-0.2 1.2c-1.9 9.8-3.1 18.1-3.8 23.6l14.7-14.7l-10.6-10.6L135.2 232z" class="style2"/><path d="M138.1 218.6l15.6 15.6l6.4-6.4l-19.5-19.5C139.6 211.8 138.8 215.3 138.1 218.6z" class="style2"/><path d="M111.2 186.1c-14.5 14.5-21.5 41.3-24.5 57.7c11.4-7.2 24.2-11.1 36.5-11.1c2.7-14.5 7.1-34.1 13.9-54 C127.9 176.7 118 179.4 111.2 186.1z" class="style2"/></g></g></svg>