<?xml version="1.0" encoding="utf-8"?>
<!-- Generator: Adobe Illustrator 18.1.1, SVG Export Plug-In . SVG Version: 6.00 Build 0)  -->
<svg version="1.1" id="Layer_1" xmlns="http://www.w3.org/2000/svg" xmlns:xlink="http://www.w3.org/1999/xlink" x="0px" y="0px"
	 viewBox="0 0 1335.6 1335.6" enable-background="new 0 0 1335.6 1335.6" xml:space="preserve">
<circle fill="#29ABE2" cx="667.8" cy="667.8" r="667.8"/>
<g>
	<path fill="#39B4E8" d="M195.6,195.6C55.1,336.1-9.7,523.6,1.2,707.5c77.5-40.8,178.1-67.5,348.4-78.8
		c318-21.1,507.1-66.1,612.1-243.1c43.2-72.8,90-158.4,130-233.8C829.4-64.3,440.8-49.7,195.6,195.6z"/>
</g>
<g>
	<path fill="#29ABE2" d="M195.6,195.6C108.2,283,50,388.7,21.2,500.3c42.9-2,107.3-10,211.3-33.7c276-63,387-159,501.1-255
		C812.7,145,860,88.5,890.6,38.1C655.6-44.8,383.5,7.6,195.6,195.6z"/>
</g>
<g>
	<path fill="#39B4E8" d="M1332.9,607.9c-139.2,239.9-626.4,377.6-989.3,419.5c-96.2,11.1-164.5,22.6-214.4,35.3
		c19.8,27,42,52.8,66.4,77.2c260.8,260.8,683.6,260.8,944.4,0C1285.6,994.3,1349.9,798.2,1332.9,607.9z"/>
</g>
<g>
	<path fill="#29ABE2" d="M718.6,1252.7c-80.9,25.9-163,43.2-242.8,54.8c227.6,68.1,484.4,12.2,664.2-167.5
		c77-77,131.2-168,162.7-264.9C1200.8,1010.2,985,1167.2,718.6,1252.7z"/>
</g>
<g>
	
		<linearGradient id="SVGID_1_" gradientUnits="userSpaceOnUse" x1="435.7834" y1="637.8738" x2="900.0073" y2="637.8738" gradientTransform="matrix(0.7071 0.7071 -0.7071 0.7071 667.7813 -276.6041)">
		<stop  offset="0.5" style="stop-color:#FFFFFF"/>
		<stop  offset="0.5" style="stop-color:#000000"/>
	</linearGradient>
	<path fill="url(#SVGID_1_)" stroke="#000000" stroke-width="40.694" stroke-miterlimit="10" d="M951.6,384.1
		c-90.6-90.6-237.6-90.6-328.3,0c-164.1,164.1-197,525.2-197,525.2s361.1-32.8,525.2-197C1042.3,621.7,1042.3,474.8,951.6,384.1z"/>
	<circle fill="#FFFFFF" stroke="#000000" stroke-width="40.694" stroke-miterlimit="10" cx="789" cy="546.7" r="89.3"/>
	<path stroke="#000000" stroke-width="40.694" stroke-miterlimit="10" d="M733.2,839.8c-81,29.5-162.3,47.2-220.9,57.4
		c5.5,56.2-16.6,120-64.1,171c14-1.4,182.9-19.7,261.6-98.4C744.9,934.6,752.7,882.5,733.2,839.8z"/>
	<path fill="#FFFFFF" stroke="#000000" stroke-width="40.694" stroke-miterlimit="10" d="M496,602.5c-42.8-19.4-94.8-11.7-130,23.5
		c-78.6,78.6-97,247.6-98.4,261.6c51-47.6,114.8-69.7,171-64.1C448.7,764.8,466.5,683.5,496,602.5z"/>
	
		<linearGradient id="SVGID_2_" gradientUnits="userSpaceOnUse" x1="618.4135" y1="186.6413" x2="717.3773" y2="186.6413" gradientTransform="matrix(0.7071 0.7071 -0.7071 0.7071 667.7813 -276.6041)">
		<stop  offset="0.5" style="stop-color:#FFFFFF"/>
		<stop  offset="0.5" style="stop-color:#000000"/>
	</linearGradient>
	<path fill="url(#SVGID_2_)" stroke="#000000" stroke-width="40.694" stroke-miterlimit="10" d="M981.9,316.2l-57.6,44.5
		c9.6,7,18.7,14.8,27.4,23.4c8.6,8.6,16.4,17.8,23.4,27.4l44.6-57.7c15.9,3.5,34-1.8,46.4-14.1c19.3-19.3,19.8-51.1,0.4-70.4
		c-19.3-19.3-50.4-19.5-69.8-0.2C984.4,281.4,978.4,300.3,981.9,316.2z"/>
	<line fill="#FFFFFF" stroke="#000000" stroke-width="37.7873" stroke-miterlimit="10" x1="452" y1="756.3" x2="579.5" y2="883.7"/>
	
		<line fill="#FFFFFF" stroke="#000000" stroke-width="37.7873" stroke-miterlimit="10" x1="470.5" y1="680.2" x2="655.5" y2="865.2"/>
	
		<line fill="#FFFFFF" stroke="#000000" stroke-width="40.694" stroke-linecap="round" stroke-miterlimit="10" x1="254.8" y1="1080.9" x2="347.3" y2="988.5"/>
	
		<line fill="#FFFFFF" stroke="#000000" stroke-width="40.694" stroke-linecap="round" stroke-miterlimit="10" x1="342.5" y1="1071.4" x2="414.4" y2="999.4"/>
	
		<line fill="#FFFFFF" stroke="#000000" stroke-width="40.694" stroke-linecap="round" stroke-miterlimit="10" x1="264.3" y1="993.3" x2="336.3" y2="921.3"/>
</g>
<g>
	<path fill="#FFFFFF" d="M237.6,632.7l-2.8,24.8L69.1,639.2l3.9-34.8c3.2-28.8,19.5-39.8,52.6-36.2c21.4,2.4,32.3,8.1,39.9,21.3
		l78.2-10.7l-2.9,26.3l-71.1,8l-1.3,11.9L237.6,632.7z M146,614.5c0.9-8.4,0.1-11.8-3.6-15c-3.7-2.9-11-5.5-19.4-6.4
		c-8.9-1-17.1-0.1-21.2,2.7c-3.8,2.1-5.1,5.2-6,13.2l-0.9,8l50.2,5.6L146,614.5z"/>
	<path fill="#FFFFFF" d="M221.2,491c20.8,6.6,27.8,10.6,33.8,19.9c5.1,7.9,6.5,18.2,3.4,27.8c-3.1,9.9-10.2,17.6-18.9,21
		c-10.3,4.1-18.6,3.4-39.2-3.1l-48.9-15.4c-20.6-6.5-27.8-10.6-33.8-19.9c-5.1-7.9-6.5-18.2-3.4-28.1c3-9.6,10.2-17.6,18.8-20.8
		c10.3-4.1,18.4-3.4,39.2,3.1L221.2,491z M204.8,535c13.2,4.2,19.6,5.7,22.9,5.6c5.6-0.1,9.7-2.9,11.3-8c1.7-5.2-0.4-10.3-5.9-13.6
		c-2.5-1.5-9.1-4-20.9-7.7l-44.3-14c-13.6-4.3-19.6-5.7-22.9-5.6c-5.6,0.1-9.7,2.9-11.2,7.8c-1.7,5.5,0.4,10.5,5.8,13.8
		c2.5,1.5,9.5,4.2,20.9,7.7L204.8,535z"/>
	<path fill="#FFFFFF" d="M206.3,408c-7.6-4-13.5-6.9-16.7-8.4c-6.6-2.5-12.9-0.6-15.9,5c-2.7,5.1-1.4,10.2,3.3,14.4
		c2.2,1.9,8.2,5.6,19.1,11.4l41.2,21.9c12.4,6.6,18.1,9.1,21.3,9.6c5.5,0.9,10.1-1.1,12.4-5.6c3-5.6,0.9-12-5.4-16.1
		c-3.3-2.2-12.7-7.5-18.5-10.6l10.4-19.6l7.4,3.9c13.4,7.1,18.1,10.6,22.9,17.9c6.9,9.9,7.5,22.4,1.4,33.9
		c-4.8,9.1-13,15.5-22.4,17.3c-11.2,2.3-18.3,0.2-38.5-10.5l-43.9-23.3c-20.4-10.8-26.1-15.6-30.5-26.1c-3.8-8.8-3.1-19.1,1.8-28.2
		c6-11.3,16.4-18.2,27.9-18.3c8.3-0.1,13.4,1.4,26.1,8.1l7,3.7L206.3,408z"/>
	<path fill="#FFFFFF" d="M207.8,317.5l46,36.5l-29.9-56.9l14.4-18.1l24.3,51.5l92.7,37.1l-14.6,18.4l-65-27.8l9.6,20.5l37.6,29.8
		L309,425.9l-114.9-91.2L207.8,317.5z"/>
	<path fill="#FFFFFF" d="M323.4,228l-28.4,25l26.4,30.1l20.5-18l13.5,15.4l-20.5,18l29.9,34l28.4-25l13.5,15.4l-44.9,39.5
		l-96.9-110.2l44.9-39.5L323.4,228z"/>
	<path fill="#FFFFFF" d="M450.2,295.1l-18.7,11.5l-66.3-107.5l-19.8,12.2L334.6,194l58.8-36.3l10.7,17.4l-20.2,12.5L450.2,295.1z"/>
	<path fill="#FFFFFF" d="M483.3,157.1c-3.6-9.1-6.5-16-8.2-19.6c-3.9-7.1-10.7-10.1-17.4-7.4c-6.1,2.4-8.8,7.7-7.9,14.9
		c0.5,3.3,2.9,10.9,8.1,24l19.3,49.3c5.8,14.9,8.9,21.2,11.3,24c4.1,4.9,9.5,6.5,14.9,4.4c6.8-2.6,9.6-9.7,7.2-17.9
		c-1.2-4.4-5.4-15.9-8.2-22.9l23.5-9.2l3.5,8.8c6.3,16.1,7.7,22.5,6.5,32.4c-1.3,13.7-10.1,24.9-23.8,30.3
		c-10.9,4.3-22.7,3.8-32.1-1.7c-11.3-6.3-16-13.3-25.5-37.6l-20.6-52.6c-9.6-24.4-11-32.8-6.9-45.1c3.2-10.4,11.5-18.7,22.4-23
		c13.5-5.3,27.6-3.6,37.6,4.9c7.2,6,10.6,11.2,16.5,26.3l3.3,8.4L483.3,157.1z"/>
	<path fill="#FFFFFF" d="M616.1,190.2c3.9,21.4,3.6,29.5-1.8,39.2c-4.5,8.2-13.1,14.2-23,16.1c-10.2,1.9-20.3-0.8-27.4-6.8
		c-8.5-7.2-11.7-14.9-15.5-36.1l-9.2-50.4c-3.9-21.2-3.6-29.5,1.8-39.2c4.5-8.2,13.1-14.2,23.2-16.1c10-1.8,20.3,0.8,27.2,6.9
		c8.5,7.2,11.6,14.6,15.5,36.1L616.1,190.2z M569.5,196.2c2.5,13.6,4.1,20,5.7,22.9c2.7,4.9,7.1,7.2,12.3,6.2
		c5.4-1,8.9-5.2,9.3-11.5c0.1-2.9-0.7-9.9-2.9-22.1l-8.3-45.7c-2.6-14.1-4.1-20-5.7-22.9c-2.7-4.9-7.1-7.2-12.1-6.3
		c-5.6,1-9.1,5.2-9.5,11.6c-0.1,2.9,0.8,10.4,2.9,22.1L569.5,196.2z"/>
	<path fill="#FFFFFF" d="M688.4,236.5l-31-91l-0.9,90.6L636,236l1.5-146.7l22.2,0.2l29.2,87.4l0.9-87.1l20.5,0.2l-1.5,146.7
		L688.4,236.5z"/>
	<path fill="#FFFFFF" d="M802.5,125.6l-36.5-6.9l-7.4,39.4l26.6,5l-3.8,20.1l-26.6-5l-12.1,64.7l-21.6-4.1l27.1-144.2l58.2,10.9
		L802.5,125.6z"/>
</g>
<g>
	<path fill="#FFFFFF" d="M521.7,1204.4l-11.6,27.4l-19.2-4.8l53.6-124.1l25.2,6.3l-10,135l-20-5l2.7-29.6L521.7,1204.4z
		 M549.3,1137.3L529,1187l15.1,3.8L549.3,1137.3z"/>
	<path fill="#FFFFFF" d="M655.8,1253.5l5.6-92l-24.8,90.9l-9-0.5l-14.5-93.3l-5.6,92l-18.6-1.1l8.2-133.1l26.7,1.6l11.6,82.1
		l20.1-80.1l26.9,1.7l-8.2,133.1L655.8,1253.5z"/>
	<path fill="#FFFFFF" d="M735.1,1147.9c-2.6-11.8-6-15.6-13.4-14.8c-6.8,0.8-10.5,6.5-9.6,14.4c1.1,9.1,5.3,14.1,20.9,25.6
		c22.9,16.5,28.8,24.2,30.7,40.3c2.3,20.3-8.8,35.4-27.5,37.6c-19.5,2.3-34-10.4-37.1-31.9l18.5-5.6c2.2,13.8,7.6,20.1,16.5,19
		c7.4-0.9,11.5-7,10.4-15.9c-0.6-5-2.9-9.5-6.8-13.7c-3.7-3.8-5-5.1-17.3-13.9c-18.5-13.6-25.7-23.4-27.4-38.1
		c-2.3-19.7,8.7-34.2,27.4-36.4c17.5-2,28.9,7.5,33.7,28.3L735.1,1147.9z"/>
	<path fill="#FFFFFF" d="M828.9,1230.6l-19.3,5.2L780,1124.8l-20.5,5.5l-4.8-18l60.7-16.2l4.8,18l-20.9,5.6L828.9,1230.6z"/>
	<path fill="#FFFFFF" d="M878.9,1089.4l-31.7,13.5l14.3,33.5l22.8-9.7l7.3,17.1l-22.8,9.7l16.1,37.9l31.7-13.5l7.3,17.1l-50.1,21.3
		l-52.3-122.7l50.1-21.3L878.9,1089.4z"/>
	<path fill="#FFFFFF" d="M965.8,1171.8l-17,10.5L879,1068.6l23.9-14.7c19.8-12.1,34.7-7.3,48.7,15.4c9,14.7,10.8,24.4,6.2,35.6
		l45.2,44.1l-18.1,11.1l-40-40.9l-8.2,5L965.8,1171.8z M932.3,1105c5.8-3.6,7.5-5.8,7.7-9.7c0-3.8-1.9-9.6-5.5-15.4
		c-3.8-6.1-8.3-10.9-12.1-12c-3.2-1.3-5.8-0.7-11.3,2.7l-5.5,3.4l21.2,34.4L932.3,1105z"/>
	<path fill="#FFFFFF" d="M939.2,1030.6l21.5-18.5c17.4-15,33.4-13,50.2,6.4l38,44.1c16.7,19.4,16.4,35.5-1,50.5l-21.5,18.5
		L939.2,1030.6z M1034,1100.4c4.2-3.7,6.4-7.9,6.1-12.2c-0.4-4.4-2.4-8-8.9-15.5l-33-38.3c-6.5-7.6-9.7-10.1-14.1-11.1
		c-4.2-0.9-8.7,0.6-12.9,4.3l-4.7,4l62.8,72.9L1034,1100.4z"/>
	<path fill="#FFFFFF" d="M1086,1034l19.4,22.5l-12.8,15.1l-87.6-103l16.8-19.8l116.7,68.7l-13.3,15.7l-25.4-15.5L1086,1034z
		 M1038,979.6l35.6,40.2l10.1-11.9L1038,979.6z"/>
	<path fill="#FFFFFF" d="M1188.6,936.3l-80.1-45.7l70.6,62.4l-4.5,7.8l-90.1-28.2l80.1,45.7l-9.2,16.2l-115.9-66.1l13.3-23.3
		l78.8,25.8l-63-53.5l13.4-23.4l115.9,66.1L1188.6,936.3z"/>
	<path fill="#FFFFFF" d="M1239.7,795.5l-15.4,56.3l-17.6-4.8c-36.1-42.6-52.6-57.1-71.4-62.2c-9.1-2.5-14.8-0.3-16.5,5.9
		c-2.1,7.7,3.1,12.9,16.6,16.6c0.4,0.1,2.1,0.6,3.7,0.8l-4.9,17.9c-2-0.3-3.9-0.9-4.5-1c-23.2-6.3-33-20.2-27.8-39.3
		c4.7-17.2,19.5-24.5,39-19.2c13.3,3.6,26.1,12.3,43.5,29.7c8,8,11.7,11.9,28.2,31.3l10-36.7L1239.7,795.5z"/>
	<path fill="#FFFFFF" d="M1215.7,701.2c14.3,1.6,20.7,3.8,26.7,9.3c6.6,6,10,15,8.9,24.4c-1.1,9.5-6.5,17.8-14.2,21.9
		c-7.1,4-13.8,4.7-28.1,3l-58.6-6.7c-14.3-1.6-20.7-3.8-26.7-9.3c-6.6-5.8-10-15-8.9-24.6c1.1-9.3,6.4-17.6,14.2-21.7
		c7.1-4,13.8-4.7,28.1-3L1215.7,701.2z M1211.3,741c9.5,1.1,12.3,1.2,15.7,0.4c3.7-1,6.3-4.1,6.8-8.5c0.5-4.2-1.3-7.8-4.7-9.6
		c-3-1.6-5.8-2.1-15.3-3.2l-59-6.7c-9.5-1.1-12.3-1.2-15.7-0.4c-3.7,1-6.3,4.1-6.8,8.3c-0.5,4.4,1.3,8,4.7,9.8
		c3,1.6,5.8,2.1,15.3,3.2L1211.3,741z"/>
	<path fill="#FFFFFF" d="M1252.2,633.4l0.7,19l-104.7,3.9l0.6,16.6l-12.4,0.5c-2.1-7.5-8.8-16.3-17-22.2l-0.5-12.8L1252.2,633.4z"/>
	<path fill="#FFFFFF" d="M1124.3,555.5l6.4,33.6l32.4-5.2c-7.5-3.9-11.2-8.6-12.6-15.9c-1.2-6.3,0.3-12.5,4.3-16.7
		c4.7-5.2,10.7-7.8,24.1-10.3l23.8-4.5c13.8-2.6,21.4-2,28.7,1.9c6.8,3.8,11.6,10.8,13.3,19.7c2.3,12.2-2,22.8-11.6,28.9
		c-4.9,3.2-11,5.2-21.8,7.2l-3.6-18.7c8.3-1.6,11.3-2.6,13.9-3.9c4.6-2.3,6.6-5.9,5.7-10.5c-0.7-3.5-3-6.1-6.4-6.9
		c-3.2-0.8-5.8-0.7-14.3,0.9l-21,4c-9.8,1.9-11,2.3-13.5,4c-2.6,1.5-3.6,4.6-2.9,8.1c1,5.5,4.6,8.1,12.7,9.2l2.1,17.5l-67.6,10.7
		l-9.5-49.7L1124.3,555.5z"/>
</g>
</svg>
