<?xml version="1.0" standalone="no"?><!DOCTYPE svg PUBLIC "-//W3C//DTD SVG 1.1//EN" "http://www.w3.org/Graphics/SVG/1.1/DTD/svg11.dtd"><svg width="100%" height="100%" viewBox="0 0 388 388" version="1.1" xmlns="http://www.w3.org/2000/svg" xmlns:xlink="http://www.w3.org/1999/xlink" xml:space="preserve" style="fill-rule:evenodd;clip-rule:evenodd;stroke-linejoin:round;stroke-miterlimit:1.41421;"><g><g><path d="M135.3,231.4c0,0.2 -0.1,0.4 -0.1,0.6" style="fill:#0e2b38;fill-rule:nonzero;"/><path d="M220.4,247.1c25.5,-9.8 45.4,-21.9 59.6,-36.1c24.6,-24.6 27.8,-62.5 9.8,-90.6l8.3,-10.7c5.4,0.1 10.9,-2.1 14.9,-6.1c7.9,-7.9 8,-20.7 0.1,-28.6c-7.8,-7.8 -20.6,-7.9 -28.4,-0.1c-4,4 -6.3,9.6 -6.3,15.1l-10.7,8.3c-28.1,-18 -66.1,-14.7 -90.6,9.8c-15.8,15.8 -27.5,37.5 -36.1,59.6c-13.4,-3.6 -28.1,0.1 -38.1,10.1c-23.9,23.9 -29.5,73.4 -30,78.9l-1.5,15.5l11.4,-10.6c11.2,-10.4 25.1,-16.5 38.3,-17.1c-1.6,10.6 -2.3,17.5 -2.4,18.5l-0.6,7l7,-0.6c0.6,-0.1 7.6,-0.7 18.5,-2.4c-0.6,13.3 -6.7,27.2 -17.1,38.4l-10.6,11.4l15.5,-1.5c5.6,-0.6 55,-6.1 78.9,-30c10,-10.1 13.7,-24.8 10.1,-38.2ZM304.7,83.2l-24.8,24.8c-0.8,-0.8 -1.6,-1.6 -2.5,-2.4l13.7,-10.6l-0.8,-3.6c-0.6,-2.6 0.6,-6.1 2.7,-8.2c3.2,-3.1 8.4,-3.1 11.7,0ZM86.7,243.9c3.1,-16.5 10.1,-43.3 24.5,-57.7c6.8,-6.8 16.7,-9.5 25.8,-7.3c-6.8,19.9 -11.2,39.4 -13.9,54c-12.2,-0.1 -25,3.8 -36.4,11ZM131.2,256.7c0.7,-5.5 1.9,-13.7 3.8,-23.6c0.1,-0.4 0.1,-0.8 0.2,-1.2l0.1,-0.6l10.6,10.6l-14.7,14.8ZM153.7,234.2l-15.6,-15.6c0.8,-3.3 1.6,-6.7 2.5,-10.2l19.5,19.5l-6.4,6.3ZM167.8,220.1l-24,-24c0.6,-1.9 1.1,-3.8 1.7,-5.7l0,-0.1c0.4,-1.3 0.8,-2.6 1.2,-3.9c0.1,-0.2 0.1,-0.4 0.2,-0.6c0.4,-1.2 0.8,-2.4 1.2,-3.6c0.3,-0.7 0.5,-1.5 0.8,-2.2c0.2,-0.6 0.5,-1.3 0.7,-1.9c9.6,-26.7 21.8,-47.8 35.7,-61.7c21.5,-21.5 55.3,-23.6 79.2,-6.1c0.1,0.1 0.2,0.2 0.3,0.2c0.6,0.5 1.2,0.9 1.9,1.4c0.3,0.2 0.5,0.4 0.8,0.7c0.5,0.4 0.9,0.8 1.3,1.1c0.3,0.2 0.6,0.5 0.8,0.7c0.5,0.5 1.1,1 1.6,1.5c0.1,0.1 0.2,0.2 0.3,0.3l-20.4,20.4c-12.3,-12.2 -32.3,-12.2 -44.6,0.1c-12.3,12.3 -12.3,32.2 -0.1,44.6l-38.6,38.8ZM214.9,173.2l-0.1,-0.1c-7.6,-7.8 -7.6,-20.3 0.1,-28c7.7,-7.7 20.2,-7.7 28,-0.1l0.1,0.1c7.7,7.7 7.7,20.4 0,28.1c-7.7,7.8 -20.3,7.8 -28.1,0Z" style="fill:#0e2b38;fill-rule:nonzero;"/><path d="M135.3,231.4c0,0.2 -0.1,0.4 -0.1,0.6" style="fill:#0e2b38;fill-rule:nonzero;"/><path d="M70.9,309c-2.3,2.3 -2.3,6 0,8.3c2.3,2.3 6,2.3 8.3,0l26.7,-26.7c2.3,-2.3 2.3,-6 0,-8.3c-2.3,-2.3 -6,-2.3 -8.3,0l-26.7,26.7Z" style="fill:#0e2b38;fill-rule:nonzero;"/><path d="M96.2,306.2c-2.3,2.3 -2.3,6 0,8.3c2.3,2.3 6,2.3 8.3,0l20.7,-20.7c2.3,-2.3 2.3,-6 0,-8.3c-2.3,-2.3 -6,-2.3 -8.3,0l-20.7,20.7Z" style="fill:#0e2b38;fill-rule:nonzero;"/><path d="M73.7,283.7c-2.3,2.3 -2.3,6 0,8.3c2.3,2.3 6,2.3 8.3,0l20.7,-20.7c2.3,-2.3 2.3,-6 0,-8.3c-2.3,-2.3 -6,-2.3 -8.3,0l-20.7,20.7Z" style="fill:#0e2b38;fill-rule:nonzero;"/></g><g><path d="M206.6,136.8c12.3,-12.3 32.2,-12.3 44.6,-0.1l20.4,-20.4c-0.1,-0.1 -0.2,-0.2 -0.3,-0.3c-0.5,-0.5 -1,-1 -1.6,-1.5c-0.3,-0.3 -0.6,-0.5 -0.8,-0.7c-0.4,-0.4 -0.9,-0.8 -1.3,-1.1c-0.3,-0.2 -0.5,-0.4 -0.8,-0.7c-0.6,-0.5 -1.2,-1 -1.9,-1.4c-0.1,-0.1 -0.2,-0.2 -0.3,-0.2c-23.9,-17.5 -57.6,-15.4 -79.2,6.1c-13.9,13.9 -26,34.9 -35.7,61.7c-0.2,0.6 -0.5,1.3 -0.7,1.9c-0.3,0.7 -0.5,1.4 -0.8,2.2c-0.4,1.2 -0.8,2.4 -1.2,3.6c-0.1,0.2 -0.1,0.4 -0.2,0.6c-0.4,1.3 -0.8,2.6 -1.2,3.9l0,0.1c-0.6,1.9 -1.2,3.8 -1.7,5.7l24,24l38.7,-38.7c-12.3,-12.4 -12.2,-32.4 2.84217e-14,-44.7Z" style="fill:#fff;fill-rule:nonzero;"/><path d="M290.3,91.5l0.8,3.6l-13.7,10.6c0.9,0.8 1.7,1.6 2.5,2.4l24.8,-24.8c-3.3,-3.2 -8.5,-3.2 -11.7,0c-2.1,2.1 -3.3,5.6 -2.7,8.2Z" style="fill:#fff;fill-rule:nonzero;"/><path d="M243,145.1l-0.1,-0.1c-7.8,-7.6 -20.3,-7.6 -28,0.1c-7.7,7.7 -7.7,20.2 -0.1,28l0.1,0.1c7.7,7.7 20.4,7.7 28.1,0c7.8,-7.7 7.8,-20.3 0,-28.1Z" style="fill:#fff;fill-rule:nonzero;"/><path d="M135.2,232c-0.1,0.4 -0.2,0.8 -0.2,1.2c-1.9,9.8 -3.1,18.1 -3.8,23.6l14.7,-14.7l-10.6,-10.6l-0.1,0.5Z" style="fill:#fff;fill-rule:nonzero;"/><path d="M138.1,218.6l15.6,15.6l6.4,-6.4l-19.5,-19.5c-1,3.5 -1.8,7 -2.5,10.3Z" style="fill:#fff;fill-rule:nonzero;"/><path d="M111.2,186.1c-14.5,14.5 -21.5,41.3 -24.5,57.7c11.4,-7.2 24.2,-11.1 36.5,-11.1c2.7,-14.5 7.1,-34.1 13.9,-54c-9.2,-2 -19.1,0.7 -25.9,7.4Z" style="fill:#fff;fill-rule:nonzero;"/></g></g></svg>