<?xml version="1.0" encoding="utf-8"?>
<!-- Generator: Adobe Illustrator 18.1.1, SVG Export Plug-In . SVG Version: 6.00 Build 0)  -->
<svg version="1.1" id="Layer_1" xmlns="http://www.w3.org/2000/svg" xmlns:xlink="http://www.w3.org/1999/xlink" x="0px" y="0px"
	 viewBox="0 0 1335.6 1335.6" enable-background="new 0 0 1335.6 1335.6" xml:space="preserve">
<circle fill="#29ABE2" cx="667.8" cy="667.8" r="667.8"/>
<g>
	<path fill="#39B4E8" d="M195.6,195.6C55.1,336.1-9.7,523.6,1.2,707.5c77.5-40.8,178.1-67.5,348.4-78.8
		c318-21.1,507.1-66.1,612.1-243.1c43.2-72.8,90-158.4,130-233.8C829.4-64.3,440.8-49.7,195.6,195.6z"/>
</g>
<g>
	<path fill="#29ABE2" d="M195.6,195.6C108.2,283,50,388.7,21.2,500.3c42.9-2,107.3-10,211.3-33.7c276-63,387-159,501.1-255
		C812.7,145,860,88.5,890.6,38.1C655.6-44.8,383.5,7.6,195.6,195.6z"/>
</g>
<g>
	<path fill="#39B4E8" d="M1332.9,607.9c-139.2,239.9-626.4,377.6-989.3,419.5c-96.2,11.1-164.5,22.6-214.4,35.3
		c19.8,27,42,52.8,66.4,77.2c260.8,260.8,683.6,260.8,944.4,0C1285.6,994.3,1349.9,798.2,1332.9,607.9z"/>
</g>
<g>
	<path fill="#29ABE2" d="M718.6,1252.7c-80.9,25.9-163,43.2-242.8,54.8c227.6,68.1,484.4,12.2,664.2-167.5
		c77-77,131.2-168,162.7-264.9C1200.8,1010.2,985,1167.2,718.6,1252.7z"/>
</g>
<g>
	
		<linearGradient id="SVGID_1_" gradientUnits="userSpaceOnUse" x1="435.7834" y1="637.8738" x2="900.0073" y2="637.8738" gradientTransform="matrix(0.7071 0.7071 -0.7071 0.7071 667.7813 -276.6041)">
		<stop  offset="0.5" style="stop-color:#FFFFFF"/>
		<stop  offset="0.5" style="stop-color:#000000"/>
	</linearGradient>
	<path fill="url(#SVGID_1_)" stroke="#000000" stroke-width="40.694" stroke-miterlimit="10" d="M951.6,384.1
		c-90.6-90.6-237.6-90.6-328.3,0c-164.1,164.1-197,525.2-197,525.2s361.1-32.8,525.2-197C1042.3,621.7,1042.3,474.8,951.6,384.1z"/>
	<circle fill="#FFFFFF" stroke="#000000" stroke-width="40.694" stroke-miterlimit="10" cx="789" cy="546.7" r="89.3"/>
	<path stroke="#000000" stroke-width="40.694" stroke-miterlimit="10" d="M733.2,839.8c-81,29.5-162.3,47.2-220.9,57.4
		c5.5,56.2-16.6,120-64.1,171c14-1.4,182.9-19.7,261.6-98.4C744.9,934.6,752.7,882.5,733.2,839.8z"/>
	<path fill="#FFFFFF" stroke="#000000" stroke-width="40.694" stroke-miterlimit="10" d="M496,602.5c-42.8-19.4-94.8-11.7-130,23.5
		c-78.6,78.6-97,247.6-98.4,261.6c51-47.6,114.8-69.7,171-64.1C448.7,764.8,466.5,683.5,496,602.5z"/>
	
		<linearGradient id="SVGID_2_" gradientUnits="userSpaceOnUse" x1="618.4135" y1="186.6413" x2="717.3773" y2="186.6413" gradientTransform="matrix(0.7071 0.7071 -0.7071 0.7071 667.7813 -276.6041)">
		<stop  offset="0.5" style="stop-color:#FFFFFF"/>
		<stop  offset="0.5" style="stop-color:#000000"/>
	</linearGradient>
	<path fill="url(#SVGID_2_)" stroke="#000000" stroke-width="40.694" stroke-miterlimit="10" d="M981.9,316.2l-57.6,44.5
		c9.6,7,18.7,14.8,27.4,23.4c8.6,8.6,16.4,17.8,23.4,27.4l44.6-57.7c15.9,3.5,34-1.8,46.4-14.1c19.3-19.3,19.8-51.1,0.4-70.4
		c-19.3-19.3-50.4-19.5-69.8-0.2C984.4,281.4,978.4,300.3,981.9,316.2z"/>
	<line fill="#FFFFFF" stroke="#000000" stroke-width="37.7873" stroke-miterlimit="10" x1="452" y1="756.3" x2="579.5" y2="883.7"/>
	
		<line fill="#FFFFFF" stroke="#000000" stroke-width="37.7873" stroke-miterlimit="10" x1="470.5" y1="680.2" x2="655.5" y2="865.2"/>
	
		<line fill="#FFFFFF" stroke="#000000" stroke-width="40.694" stroke-linecap="round" stroke-miterlimit="10" x1="254.8" y1="1080.9" x2="347.3" y2="988.5"/>
	
		<line fill="#FFFFFF" stroke="#000000" stroke-width="40.694" stroke-linecap="round" stroke-miterlimit="10" x1="342.5" y1="1071.4" x2="414.4" y2="999.4"/>
	
		<line fill="#FFFFFF" stroke="#000000" stroke-width="40.694" stroke-linecap="round" stroke-miterlimit="10" x1="264.3" y1="993.3" x2="336.3" y2="921.3"/>
</g>
</svg>
